<svg xmlns="http://www.w3.org/2000/svg" viewBox="0 0 64 64"><defs><linearGradient id="blue" x1="0" y1="0" x2=".35" y2="1"><stop stop-color="#81caff"/><stop offset=".42" stop-color="#188aed"/><stop offset="1" stop-color="#0647ba"/></linearGradient><radialGradient id="shine" cx=".3" cy=".22" r=".65"><stop stop-color="white" stop-opacity=".65"/><stop offset=".6" stop-color="white" stop-opacity="0"/></radialGradient></defs><path d="M32 56C25 49 7 36 6 22 5 7 23 3 32 16 41 3 59 7 58 22 57 36 39 50 32 56Z" fill="url(#blue)" stroke="#0752aa" stroke-width="2.5"/><path d="M32 56C25 49 7 36 6 22 5 7 23 3 32 16 41 3 59 7 58 22 57 36 39 50 32 56Z" fill="url(#shine)"/><path d="M12 23c-1-10 10-14 15-6" fill="none" stroke="white" stroke-opacity=".55" stroke-width="3" stroke-linecap="round"/></svg>